<svg xmlns="http://www.w3.org/2000/svg" viewBox="0 0 32 32" fill="none">
  <path fill-rule="evenodd" clip-rule="evenodd" d="M16.0024 0C26.8802 0 32 5.63798 32.0048 15.9977C32.0048 26.3573 26.885 32 16.0024 32C5.11981 32 0 26.3573 0 15.9977C0 5.63798 5.11981 0 16.0024 0ZM16.0024 7.04514C12.921 7.04514 10.6921 7.84923 9.23471 9.34054C7.77735 10.8318 7.05343 13.0665 7.05343 16.0023C7.05343 18.5736 7.63923 21.2944 9.6681 23.0568C9.79193 23.1644 9.86337 23.314 9.86337 23.4729V26.895C9.86337 27.3204 10.3301 27.5869 10.7064 27.3812L15.0641 25.011C15.1594 24.9595 15.2737 24.9362 15.3832 24.9455C15.588 24.9595 15.7928 24.9549 15.9976 24.9549C19.079 24.9549 21.3079 24.1554 22.7653 22.6688C24.2227 21.1775 24.9466 18.9429 24.9466 16.007C24.9466 13.0711 24.2227 10.8365 22.7653 9.34522C21.3079 7.85391 19.0838 7.04982 15.9976 7.04982L16.0024 7.04514Z" fill="#002D5B"/>
</svg>
