<svg xmlns="http://www.w3.org/2000/svg" viewBox="0 0 100 28" fill="none">
  <path d="M17.3247 12.1957V0.843918H23.5025V27.5602H17.3247V17.2939H6.17779V27.5602H0V0.843918H6.17779V12.1957H17.3247Z" fill="#002D5B"/>
  <path fill-rule="evenodd" clip-rule="evenodd" d="M38.3798 0C46.041 0 50.131 4.42856 50.131 12.56L50.1311 27.5591H43.9536L43.9535 18.5124H32.8066L32.8066 27.5591H26.6287L26.6286 12.56C26.6286 4.42856 30.7187 0 38.3798 0ZM32.8066 10.8906V13.4142H43.9535V10.8906C43.9535 6.98266 41.0192 5.34889 38.3798 5.34897C35.7406 5.34905 32.8066 6.90439 32.8066 10.8906Z" fill="#002D5B"/>
  <path d="M59.4347 0.867386V19.8157C59.4347 21.2201 60.0123 21.8176 61.3699 21.8176H72.4906V27.5829H59.3674C55.704 27.5829 53.2571 25.0517 53.2571 21.2621V0.867386H59.4347Z" fill="#002D5B"/>
  <path fill-rule="evenodd" clip-rule="evenodd" d="M86.7147 0C95.7478 0.000327753 99.999 4.9325 100 13.9967C100 23.0629 95.7489 27.9997 86.7147 28C77.6809 27.9994 73.4294 23.0627 73.4294 13.9967C73.4304 4.93272 77.682 0.000564603 86.7147 0ZM86.7147 6.1644C84.1544 6.16469 82.3057 6.86849 81.0975 8.1725C79.8891 9.47881 79.2852 11.4311 79.2852 14.0033C79.2857 16.3258 79.8048 18.785 81.6198 20.3212V24.3641L86.0633 21.8156C86.2775 21.8433 86.4992 21.8356 86.7147 21.8356C89.2744 21.8355 91.1235 21.1372 92.3319 19.8342C93.5415 18.5283 94.1437 16.5758 94.1441 14.0033C94.1441 11.4301 93.5413 9.47882 92.3319 8.1725C91.1235 6.86812 89.2757 6.16446 86.7147 6.1644Z" fill="#002D5B"/>
</svg>
